<svg xmlns="http://www.w3.org/2000/svg" xmlns:xlink="http://www.w3.org/1999/xlink" width="48" zoomAndPan="magnify" viewBox="0 0 36 36.000001" height="48" preserveAspectRatio="xMidYMid meet" version="1.0"><defs><clipPath id="49bcf9ac14"><path d="M 8.4375 5.667969 L 23 5.667969 L 23 25 L 8.4375 25 Z M 8.4375 5.667969 " clip-rule="nonzero"/></clipPath><clipPath id="e73cf6d510"><path d="M 17 16 L 30.332031 16 L 30.332031 29.019531 L 17 29.019531 Z M 17 16 " clip-rule="nonzero"/></clipPath></defs><g clip-path="url(#49bcf9ac14)"><path fill="#022040" d="M 16.777344 23.550781 L 9.828125 23.550781 C 9.617188 23.550781 9.433594 23.464844 9.292969 23.3125 C 9.148438 23.15625 9.082031 22.957031 9.101562 22.75 L 9.460938 19.25 C 9.6875 17.34375 10.949219 15.75 12.75 15.097656 L 13.996094 14.738281 C 14.699219 15.140625 15.515625 15.371094 16.382812 15.371094 C 17.253906 15.371094 18.066406 15.140625 18.773438 14.738281 L 20.019531 15.097656 C 20.816406 15.386719 21.515625 15.855469 22.050781 16.453125 C 22.183594 16.285156 22.378906 16.164062 22.597656 16.121094 C 21.972656 15.402344 21.160156 14.832031 20.21875 14.5 C 20.210938 14.5 20.207031 14.5 20.199219 14.492188 L 19.453125 14.273438 C 20.539062 13.382812 21.234375 12.03125 21.234375 10.523438 C 21.238281 7.84375 19.058594 5.667969 16.382812 5.667969 C 13.710938 5.667969 11.535156 7.84375 11.535156 10.519531 C 11.535156 12.03125 12.230469 13.382812 13.320312 14.273438 L 12.550781 14.496094 C 10.515625 15.234375 9.089844 17.027344 8.832031 19.175781 L 8.476562 22.6875 C 8.4375 23.066406 8.5625 23.449219 8.820312 23.734375 C 9.078125 24.019531 9.449219 24.183594 9.828125 24.183594 L 16.800781 24.183594 C 16.78125 24.121094 16.777344 24.050781 16.777344 23.980469 Z M 12.167969 10.519531 C 12.167969 8.191406 14.058594 6.300781 16.386719 6.300781 C 18.714844 6.300781 20.605469 8.191406 20.605469 10.519531 C 20.605469 12.847656 18.714844 14.738281 16.386719 14.738281 C 14.058594 14.738281 12.167969 12.847656 12.167969 10.519531 Z M 12.167969 10.519531 " fill-opacity="1" fill-rule="nonzero"/></g><g clip-path="url(#e73cf6d510)"><path fill="#022040" d="M 29.753906 21.804688 L 28.179688 21.636719 C 28.097656 21.378906 27.996094 21.128906 27.875 20.894531 L 28.867188 19.664062 C 28.96875 19.539062 28.960938 19.355469 28.84375 19.242188 L 27.523438 17.929688 C 27.410156 17.8125 27.230469 17.804688 27.101562 17.90625 L 25.878906 18.894531 C 25.640625 18.773438 25.394531 18.671875 25.136719 18.589844 L 24.96875 17.015625 C 24.953125 16.855469 24.816406 16.734375 24.65625 16.734375 L 22.785156 16.734375 C 22.625 16.734375 22.488281 16.855469 22.472656 17.015625 L 22.304688 18.589844 C 22.046875 18.671875 21.800781 18.773438 21.5625 18.894531 L 20.339844 17.90625 C 20.214844 17.804688 20.03125 17.8125 19.917969 17.929688 L 18.597656 19.242188 C 18.480469 19.355469 18.472656 19.539062 18.574219 19.664062 L 19.566406 20.894531 C 19.445312 21.128906 19.34375 21.378906 19.261719 21.636719 L 17.6875 21.804688 C 17.527344 21.820312 17.40625 21.957031 17.40625 22.117188 L 17.40625 23.980469 C 17.40625 24.144531 17.527344 24.277344 17.6875 24.292969 L 19.261719 24.460938 C 19.34375 24.722656 19.445312 24.96875 19.566406 25.203125 L 18.574219 26.425781 C 18.472656 26.550781 18.480469 26.734375 18.597656 26.847656 L 19.917969 28.167969 C 20.03125 28.285156 20.214844 28.292969 20.339844 28.191406 L 21.5625 27.199219 C 21.796875 27.320312 22.042969 27.425781 22.300781 27.507812 L 22.46875 29.074219 C 22.488281 29.234375 22.621094 29.355469 22.78125 29.355469 L 24.652344 29.355469 C 24.816406 29.355469 24.949219 29.234375 24.96875 29.074219 L 25.132812 27.507812 C 25.394531 27.425781 25.644531 27.320312 25.878906 27.199219 L 27.101562 28.191406 C 27.222656 28.292969 27.40625 28.28125 27.519531 28.167969 L 28.84375 26.847656 C 28.957031 26.730469 28.96875 26.550781 28.867188 26.425781 L 27.871094 25.199219 C 27.992188 24.964844 28.09375 24.71875 28.175781 24.460938 L 29.75 24.292969 C 29.910156 24.273438 30.03125 24.140625 30.03125 23.976562 L 30.03125 22.113281 C 30.035156 21.957031 29.914062 21.820312 29.753906 21.804688 Z M 29.402344 23.695312 L 27.902344 23.855469 C 27.773438 23.871094 27.664062 23.960938 27.632812 24.085938 C 27.535156 24.441406 27.398438 24.777344 27.222656 25.078125 C 27.160156 25.191406 27.167969 25.332031 27.25 25.433594 L 28.195312 26.601562 L 27.277344 27.523438 L 26.109375 26.578125 C 26.007812 26.496094 25.867188 26.488281 25.75 26.550781 C 25.449219 26.730469 25.117188 26.867188 24.761719 26.964844 C 24.636719 27 24.542969 27.109375 24.53125 27.238281 L 24.371094 28.730469 L 23.070312 28.730469 L 22.910156 27.238281 C 22.894531 27.109375 22.804688 27 22.679688 26.96875 C 22.324219 26.871094 21.992188 26.730469 21.691406 26.554688 C 21.578125 26.488281 21.433594 26.5 21.332031 26.582031 L 20.164062 27.527344 L 19.246094 26.605469 L 20.191406 25.4375 C 20.273438 25.335938 20.28125 25.195312 20.21875 25.082031 C 20.042969 24.78125 19.90625 24.445312 19.8125 24.09375 C 19.777344 23.96875 19.667969 23.875 19.539062 23.859375 L 18.039062 23.703125 L 18.039062 22.402344 L 19.539062 22.242188 C 19.667969 22.226562 19.777344 22.136719 19.8125 22.011719 C 19.90625 21.652344 20.046875 21.320312 20.21875 21.019531 C 20.28125 20.910156 20.273438 20.765625 20.191406 20.664062 L 19.242188 19.488281 L 20.164062 18.574219 L 21.328125 19.515625 C 21.429688 19.597656 21.570312 19.605469 21.683594 19.542969 C 21.992188 19.371094 22.328125 19.234375 22.679688 19.136719 C 22.804688 19.101562 22.894531 18.992188 22.90625 18.863281 L 23.066406 17.363281 L 24.367188 17.363281 L 24.527344 18.863281 C 24.542969 18.992188 24.632812 19.101562 24.757812 19.136719 C 25.105469 19.230469 25.445312 19.371094 25.753906 19.542969 C 25.867188 19.605469 26.003906 19.597656 26.105469 19.515625 L 27.273438 18.578125 L 28.195312 19.492188 L 27.246094 20.667969 C 27.164062 20.769531 27.15625 20.910156 27.21875 21.023438 C 27.394531 21.324219 27.53125 21.660156 27.625 22.011719 C 27.660156 22.140625 27.769531 22.230469 27.898438 22.246094 L 29.398438 22.40625 L 29.398438 23.695312 Z M 29.402344 23.695312 " fill-opacity="1" fill-rule="nonzero"/></g><path fill="#022040" d="M 23.722656 20.496094 C 22.3125 20.496094 21.167969 21.640625 21.167969 23.046875 C 21.167969 24.453125 22.3125 25.597656 23.722656 25.597656 C 25.128906 25.597656 26.273438 24.453125 26.273438 23.046875 C 26.273438 21.640625 25.128906 20.496094 23.722656 20.496094 Z M 23.722656 24.964844 C 22.664062 24.964844 21.800781 24.105469 21.800781 23.046875 C 21.800781 21.984375 22.660156 21.125 23.722656 21.125 C 24.777344 21.125 25.640625 21.984375 25.640625 23.046875 C 25.640625 24.105469 24.777344 24.964844 23.722656 24.964844 Z M 23.722656 24.964844 " fill-opacity="1" fill-rule="nonzero"/></svg>